<svg xmlns="http://www.w3.org/2000/svg" xmlns:xlink="http://www.w3.org/1999/xlink" contentStyleType="text/css" height="756.8px" preserveAspectRatio="none" style="width:868px;height:756px;background:#FFFFFF;" version="1.1" viewBox="0 0 868 756" width="868px" zoomAndPan="magnify"><defs/><g><!--class Customer--><g id="elem_Customer"><rect codeLine="2" fill="#F1F1F1" height="172.4719" id="Customer" rx="2" ry="2" style="stroke:#181818;stroke-width:0.4000000000000001;" width="383.0391" x="240.4" y="5.6"/><ellipse cx="404.2465" cy="18.4" fill="#ADD1B2" rx="8.8" ry="8.8" style="stroke:#181818;stroke-width:0.8000000000000002;"/><path d="M406.459,15.1 Q406.584,14.925 406.734,14.8375 Q406.884,14.75 407.059,14.75 Q407.359,14.75 407.5465,14.9625 Q407.734,15.1625 407.734,15.65 L407.734,16.8125 Q407.734,17.3 407.5465,17.5125 Q407.359,17.725 407.059,17.725 Q406.784,17.725 406.6215,17.5625 Q406.459,17.4125 406.3715,17 Q406.334,16.7125 406.184,16.5625 Q405.9215,16.2625 405.434,16.0875 Q404.9465,15.9125 404.4465,15.9125 Q403.834,15.9125 403.3215,16.175 Q402.8215,16.4375 402.4215,17.0375 Q402.034,17.6375 402.034,18.4625 L402.034,19.3375 Q402.034,20.325 402.7465,20.9875 Q403.459,21.6375 404.734,21.6375 Q405.484,21.6375 406.009,21.4375 Q406.3215,21.3125 406.659,20.9625 Q406.8715,20.75 406.984,20.6875 Q407.109,20.625 407.2715,20.625 Q407.534,20.625 407.734,20.8375 Q407.9465,21.0375 407.9465,21.3125 Q407.9465,21.5875 407.6715,21.9125 Q407.2715,22.375 406.634,22.6375 Q405.7715,23 404.734,23 Q403.5215,23 402.559,22.5 Q401.7715,22.1 401.2215,21.25 Q400.6715,20.3875 400.6715,19.3625 L400.6715,18.4375 Q400.6715,17.375 401.159,16.4625 Q401.659,15.5375 402.534,15.05 Q403.409,14.55 404.3965,14.55 Q404.984,14.55 405.4965,14.6875 Q406.0215,14.8125 406.459,15.1 Z " fill="#000000"/><text fill="#000000" font-family="sans-serif" font-size="11.2" lengthAdjust="spacing" textLength="48.5461" x="420.6465" y="23.0375">Customer</text><line style="stroke:#181818;stroke-width:0.4000000000000001;" x1="241.2" x2="622.6391" y1="31.2" y2="31.2"/><rect fill="none" height="4.8" style="stroke:#C82930;stroke-width:0.8000000000000002;" width="4.8" x="246.8" y="40.6484"/><text fill="#000000" font-family="sans-serif" font-size="11.2" lengthAdjust="spacing" textLength="63.4977" x="256.4" y="46.4859">String name;</text><rect fill="none" height="4.8" style="stroke:#C82930;stroke-width:0.8000000000000002;" width="4.8" x="246.8" y="55.5453"/><text fill="#000000" font-family="sans-serif" font-size="11.2" lengthAdjust="spacing" textLength="102.725" x="256.4" y="61.3828">List&lt;Rental&gt; rentals;</text><line style="stroke:#181818;stroke-width:0.4000000000000001;" x1="241.2" x2="622.6391" y1="67.3938" y2="67.3938"/><ellipse cx="249.2" cy="79.2422" fill="#84BE84" rx="2.4" ry="2.4" style="stroke:#038048;stroke-width:0.8000000000000002;"/><text fill="#000000" font-family="sans-serif" font-size="11.2" lengthAdjust="spacing" textLength="116.3914" x="256.4" y="82.6797">Customer(String name)</text><ellipse cx="249.2" cy="94.1391" fill="#84BE84" rx="2.4" ry="2.4" style="stroke:#038048;stroke-width:0.8000000000000002;"/><text fill="#000000" font-family="sans-serif" font-size="11.2" lengthAdjust="spacing" textLength="145.682" x="256.4" y="97.5766">void addRental(Rental rental)</text><ellipse cx="249.2" cy="109.0359" fill="#84BE84" rx="2.4" ry="2.4" style="stroke:#038048;stroke-width:0.8000000000000002;"/><text fill="#000000" font-family="sans-serif" font-size="11.2" lengthAdjust="spacing" textLength="85.2742" x="256.4" y="112.4734">String getName()</text><ellipse cx="249.2" cy="123.9328" fill="#84BE84" rx="2.4" ry="2.4" style="stroke:#038048;stroke-width:0.8000000000000002;"/><text fill="#000000" font-family="sans-serif" font-size="11.2" lengthAdjust="spacing" textLength="89.0094" x="256.4" y="127.3703">String statement()</text><rect fill="#F24D5C" height="4.8" style="stroke:#C82930;stroke-width:0.8000000000000002;" width="4.8" x="246.8" y="136.4297"/><text fill="#000000" font-family="sans-serif" font-size="11.2" lengthAdjust="spacing" textLength="121.4063" x="256.4" y="142.2672">double getTotalCharge()</text><rect fill="#F24D5C" height="4.8" style="stroke:#C82930;stroke-width:0.8000000000000002;" width="4.8" x="246.8" y="151.3266"/><text fill="#000000" font-family="sans-serif" font-size="11.2" lengthAdjust="spacing" textLength="172.4406" x="256.4" y="157.1641">int getTotalFrequentRenterPoints()</text><rect fill="#F24D5C" height="4.8" style="stroke:#C82930;stroke-width:0.8000000000000002;" width="4.8" x="246.8" y="166.2234"/><text fill="#000000" font-family="sans-serif" font-size="11.2" lengthAdjust="spacing" textLength="362.2391" x="256.4" y="172.0609">&lt;T&gt; T summarizeRentals(T summary, BiFunction&lt;T, Rental, T&gt; process)</text></g><!--class Rental--><g id="elem_Rental"><rect codeLine="14" fill="#F1F1F1" height="157.575" id="Rental" rx="2" ry="2" style="stroke:#181818;stroke-width:0.4000000000000001;" width="204.4352" x="329.6" y="241.6"/><ellipse cx="412.2301" cy="254.4" fill="#ADD1B2" rx="8.8" ry="8.8" style="stroke:#181818;stroke-width:0.8000000000000002;"/><path d="M414.4426,251.1 Q414.5676,250.925 414.7176,250.8375 Q414.8676,250.75 415.0426,250.75 Q415.3426,250.75 415.5301,250.9625 Q415.7176,251.1625 415.7176,251.65 L415.7176,252.8125 Q415.7176,253.3 415.5301,253.5125 Q415.3426,253.725 415.0426,253.725 Q414.7676,253.725 414.6051,253.5625 Q414.4426,253.4125 414.3551,253 Q414.3176,252.7125 414.1676,252.5625 Q413.9051,252.2625 413.4176,252.0875 Q412.9301,251.9125 412.4301,251.9125 Q411.8176,251.9125 411.3051,252.175 Q410.8051,252.4375 410.4051,253.0375 Q410.0176,253.6375 410.0176,254.4625 L410.0176,255.3375 Q410.0176,256.325 410.7301,256.9875 Q411.4426,257.6375 412.7176,257.6375 Q413.4676,257.6375 413.9926,257.4375 Q414.3051,257.3125 414.6426,256.9625 Q414.8551,256.75 414.9676,256.6875 Q415.0926,256.625 415.2551,256.625 Q415.5176,256.625 415.7176,256.8375 Q415.9301,257.0375 415.9301,257.3125 Q415.9301,257.5875 415.6551,257.9125 Q415.2551,258.375 414.6176,258.6375 Q413.7551,259 412.7176,259 Q411.5051,259 410.5426,258.5 Q409.7551,258.1 409.2051,257.25 Q408.6551,256.3875 408.6551,255.3625 L408.6551,254.4375 Q408.6551,253.375 409.1426,252.4625 Q409.6426,251.5375 410.5176,251.05 Q411.3926,250.55 412.3801,250.55 Q412.9676,250.55 413.4801,250.6875 Q414.0051,250.8125 414.4426,251.1 Z " fill="#000000"/><text fill="#000000" font-family="sans-serif" font-size="11.2" lengthAdjust="spacing" textLength="32.375" x="428.6301" y="259.0375">Rental</text><line style="stroke:#181818;stroke-width:0.4000000000000001;" x1="330.4" x2="533.2352" y1="267.2" y2="267.2"/><rect fill="none" height="4.8" style="stroke:#C82930;stroke-width:0.8000000000000002;" width="4.8" x="336" y="276.6484"/><text fill="#000000" font-family="sans-serif" font-size="11.2" lengthAdjust="spacing" textLength="65.975" x="345.6" y="282.4859">Movie movie;</text><rect fill="none" height="4.8" style="stroke:#C82930;stroke-width:0.8000000000000002;" width="4.8" x="336" y="291.5453"/><text fill="#000000" font-family="sans-serif" font-size="11.2" lengthAdjust="spacing" textLength="77.8258" x="345.6" y="297.3828">int daysRented;</text><line style="stroke:#181818;stroke-width:0.4000000000000001;" x1="330.4" x2="533.2352" y1="303.3938" y2="303.3938"/><ellipse cx="338.4" cy="315.2422" fill="#84BE84" rx="2.4" ry="2.4" style="stroke:#038048;stroke-width:0.8000000000000002;"/><text fill="#000000" font-family="sans-serif" font-size="11.2" lengthAdjust="spacing" textLength="183.6352" x="345.6" y="318.6797">Rental(Movie movie, int daysRented)</text><ellipse cx="338.4" cy="330.1391" fill="#84BE84" rx="2.4" ry="2.4" style="stroke:#038048;stroke-width:0.8000000000000002;"/><text fill="#000000" font-family="sans-serif" font-size="11.2" lengthAdjust="spacing" textLength="99.6023" x="345.6" y="333.5766">int getDaysRented()</text><ellipse cx="338.4" cy="345.0359" fill="#84BE84" rx="2.4" ry="2.4" style="stroke:#038048;stroke-width:0.8000000000000002;"/><text fill="#000000" font-family="sans-serif" font-size="11.2" lengthAdjust="spacing" textLength="96.507" x="345.6" y="348.4734">double getCharge()</text><ellipse cx="338.4" cy="359.9328" fill="#84BE84" rx="2.4" ry="2.4" style="stroke:#038048;stroke-width:0.8000000000000002;"/><text fill="#000000" font-family="sans-serif" font-size="11.2" lengthAdjust="spacing" textLength="147.5414" x="345.6" y="363.3703">int getFrequentRenterPoints()</text><ellipse cx="338.4" cy="374.8297" fill="#84BE84" rx="2.4" ry="2.4" style="stroke:#038048;stroke-width:0.8000000000000002;"/><text fill="#000000" font-family="sans-serif" font-size="11.2" lengthAdjust="spacing" textLength="85.8922" x="345.6" y="378.2672">Movie getMovie()</text><ellipse cx="338.4" cy="389.7266" fill="#84BE84" rx="2.4" ry="2.4" style="stroke:#038048;stroke-width:0.8000000000000002;"/><text fill="#000000" font-family="sans-serif" font-size="11.2" lengthAdjust="spacing" textLength="76.557" x="345.6" y="393.1641">String getTitle()</text></g><!--class Movie--><g id="elem_Movie"><rect codeLine="25" fill="#F1F1F1" height="112.8844" id="Movie" rx="2" ry="2" style="stroke:#181818;stroke-width:0.4000000000000001;" width="243.0555" x="310.4" y="462.4"/><ellipse cx="413.5898" cy="475.2" fill="#A9DCDF" rx="8.8" ry="8.8" style="stroke:#181818;stroke-width:0.8000000000000002;"/><path d="M415.3398,476.6125 L412.0273,476.6125 L411.6898,477.4375 L412.0273,477.4375 Q412.5148,477.4375 412.7273,477.625 Q412.9398,477.8125 412.9398,478.125 Q412.9398,478.425 412.7273,478.6125 Q412.5148,478.8 412.0273,478.8 L410.1898,478.8 Q409.7023,478.8 409.5023,478.6125 Q409.2898,478.425 409.2898,478.1125 Q409.2898,477.8125 409.5148,477.625 Q409.7273,477.425 410.2273,477.4375 L412.3648,472.1125 L411.4773,472.1125 Q410.9898,472.1125 410.7773,471.925 Q410.5648,471.7375 410.5648,471.425 Q410.5648,471.125 410.7773,470.9375 Q410.9898,470.75 411.4773,470.75 L414.4148,470.75 L417.1273,477.4375 Q417.6023,477.4375 417.7523,477.55 Q418.0648,477.7625 418.0648,478.125 Q418.0648,478.425 417.8523,478.6125 Q417.6523,478.8 417.1648,478.8 L415.3273,478.8 Q414.8398,478.8 414.6273,478.6125 Q414.4148,478.425 414.4148,478.1125 Q414.4148,477.8125 414.6273,477.625 Q414.8398,477.4375 415.3273,477.4375 L415.6648,477.4375 L415.3398,476.6125 Z M414.7648,475.25 L413.6773,472.55 L412.5773,475.25 L414.7648,475.25 Z " fill="#000000"/><text fill="#000000" font-family="sans-serif" font-size="11.2" font-style="italic" lengthAdjust="spacing" textLength="29.8758" x="429.9898" y="479.8375">Movie</text><line style="stroke:#181818;stroke-width:0.4000000000000001;" x1="311.2" x2="552.6555" y1="488" y2="488"/><rect fill="none" height="4.8" style="stroke:#C82930;stroke-width:0.8000000000000002;" width="4.8" x="316.8" y="497.4484"/><text fill="#000000" font-family="sans-serif" font-size="11.2" lengthAdjust="spacing" textLength="52.9102" x="326.4" y="503.2859">String title;</text><line style="stroke:#181818;stroke-width:0.4000000000000001;" x1="311.2" x2="552.6555" y1="509.2969" y2="509.2969"/><ellipse cx="319.2" cy="521.1453" fill="#84BE84" rx="2.4" ry="2.4" style="stroke:#038048;stroke-width:0.8000000000000002;"/><text fill="#000000" font-family="sans-serif" font-size="11.2" lengthAdjust="spacing" textLength="87.1336" x="326.4" y="524.5828">Movie(String title)</text><ellipse cx="319.2" cy="536.0422" fill="#84BE84" rx="2.4" ry="2.4" style="stroke:#038048;stroke-width:0.8000000000000002;"/><text fill="#000000" font-family="sans-serif" font-size="11.2" lengthAdjust="spacing" textLength="214.1727" x="326.4" y="539.4797">abstract double getCharge(int daysRented)</text><ellipse cx="319.2" cy="550.9391" fill="#84BE84" rx="2.4" ry="2.4" style="stroke:#038048;stroke-width:0.8000000000000002;"/><text fill="#000000" font-family="sans-serif" font-size="11.2" lengthAdjust="spacing" textLength="222.2555" x="326.4" y="554.3766">int getFrequentRenterPoints(int daysRented)</text><ellipse cx="319.2" cy="565.8359" fill="#84BE84" rx="2.4" ry="2.4" style="stroke:#038048;stroke-width:0.8000000000000002;"/><text fill="#000000" font-family="sans-serif" font-size="11.2" lengthAdjust="spacing" textLength="76.557" x="326.4" y="569.2734">String getTitle()</text></g><!--class RegularMovie--><g id="elem_RegularMovie"><rect codeLine="33" fill="#F1F1F1" height="112.8844" id="RegularMovie" rx="2" ry="2" style="stroke:#181818;stroke-width:0.4000000000000001;" width="265.7234" x="5.6" y="631.6"/><ellipse cx="100.5129" cy="644.4" fill="#ADD1B2" rx="8.8" ry="8.8" style="stroke:#181818;stroke-width:0.8000000000000002;"/><path d="M102.7254,641.1 Q102.8504,640.925 103.0004,640.8375 Q103.1504,640.75 103.3254,640.75 Q103.6254,640.75 103.8129,640.9625 Q104.0004,641.1625 104.0004,641.65 L104.0004,642.8125 Q104.0004,643.3 103.8129,643.5125 Q103.6254,643.725 103.3254,643.725 Q103.0504,643.725 102.8879,643.5625 Q102.7254,643.4125 102.6379,643 Q102.6004,642.7125 102.4504,642.5625 Q102.1879,642.2625 101.7004,642.0875 Q101.2129,641.9125 100.7129,641.9125 Q100.1004,641.9125 99.5879,642.175 Q99.0879,642.4375 98.6879,643.0375 Q98.3004,643.6375 98.3004,644.4625 L98.3004,645.3375 Q98.3004,646.325 99.0129,646.9875 Q99.7254,647.6375 101.0004,647.6375 Q101.7504,647.6375 102.2754,647.4375 Q102.5879,647.3125 102.9254,646.9625 Q103.1379,646.75 103.2504,646.6875 Q103.3754,646.625 103.5379,646.625 Q103.8004,646.625 104.0004,646.8375 Q104.2129,647.0375 104.2129,647.3125 Q104.2129,647.5875 103.9379,647.9125 Q103.5379,648.375 102.9004,648.6375 Q102.0379,649 101.0004,649 Q99.7879,649 98.8254,648.5 Q98.0379,648.1 97.4879,647.25 Q96.9379,646.3875 96.9379,645.3625 L96.9379,644.4375 Q96.9379,643.375 97.4254,642.4625 Q97.9254,641.5375 98.8004,641.05 Q99.6754,640.55 100.6629,640.55 Q101.2504,640.55 101.7629,640.6875 Q102.2879,640.8125 102.7254,641.1 Z " fill="#000000"/><text fill="#000000" font-family="sans-serif" font-size="11.2" lengthAdjust="spacing" textLength="69.0977" x="116.9129" y="649.0375">RegularMovie</text><line style="stroke:#181818;stroke-width:0.4000000000000001;" x1="6.4" x2="270.5234" y1="657.2" y2="657.2"/><rect fill="none" height="4.8" style="stroke:#C82930;stroke-width:0.8000000000000002;" width="4.8" x="12" y="666.6484"/><text fill="#000000" font-family="sans-serif" font-size="11.2" lengthAdjust="spacing" text-decoration="underline" textLength="165.9055" x="21.6" y="672.4859">static final double CHARGE = 2.0</text><rect fill="none" height="4.8" style="stroke:#C82930;stroke-width:0.8000000000000002;" width="4.8" x="12" y="681.5453"/><text fill="#000000" font-family="sans-serif" font-size="11.2" lengthAdjust="spacing" text-decoration="underline" textLength="209.475" x="21.6" y="687.3828">static final double EXTRA_CHARGE = 1.5</text><rect fill="none" height="4.8" style="stroke:#C82930;stroke-width:0.8000000000000002;" width="4.8" x="12" y="696.4422"/><text fill="#000000" font-family="sans-serif" font-size="11.2" lengthAdjust="spacing" text-decoration="underline" textLength="244.9234" x="21.6" y="702.2797">static final int DAYS_RENTED_THRESHOLD = 2</text><line style="stroke:#181818;stroke-width:0.4000000000000001;" x1="6.4" x2="270.5234" y1="708.2906" y2="708.2906"/><ellipse cx="14.4" cy="720.1391" fill="#84BE84" rx="2.4" ry="2.4" style="stroke:#038048;stroke-width:0.8000000000000002;"/><text fill="#000000" font-family="sans-serif" font-size="11.2" lengthAdjust="spacing" textLength="126.3555" x="21.6" y="723.5766">RegularMovie(String title)</text><ellipse cx="14.4" cy="735.0359" fill="#84BE84" rx="2.4" ry="2.4" style="stroke:#038048;stroke-width:0.8000000000000002;"/><text fill="#000000" font-family="sans-serif" font-size="11.2" lengthAdjust="spacing" textLength="171.2211" x="21.6" y="738.4734">double getCharge(int daysRented)</text></g><!--class ChildrenMovie--><g id="elem_ChildrenMovie"><rect codeLine="41" fill="#F1F1F1" height="112.8844" id="ChildrenMovie" rx="2" ry="2" style="stroke:#181818;stroke-width:0.4000000000000001;" width="265.7234" x="299.2" y="631.6"/><ellipse cx="392.8688" cy="644.4" fill="#ADD1B2" rx="8.8" ry="8.8" style="stroke:#181818;stroke-width:0.8000000000000002;"/><path d="M395.0813,641.1 Q395.2063,640.925 395.3563,640.8375 Q395.5063,640.75 395.6813,640.75 Q395.9813,640.75 396.1688,640.9625 Q396.3563,641.1625 396.3563,641.65 L396.3563,642.8125 Q396.3563,643.3 396.1688,643.5125 Q395.9813,643.725 395.6813,643.725 Q395.4063,643.725 395.2438,643.5625 Q395.0813,643.4125 394.9938,643 Q394.9563,642.7125 394.8063,642.5625 Q394.5438,642.2625 394.0563,642.0875 Q393.5688,641.9125 393.0688,641.9125 Q392.4563,641.9125 391.9438,642.175 Q391.4438,642.4375 391.0438,643.0375 Q390.6563,643.6375 390.6563,644.4625 L390.6563,645.3375 Q390.6563,646.325 391.3688,646.9875 Q392.0813,647.6375 393.3563,647.6375 Q394.1063,647.6375 394.6313,647.4375 Q394.9438,647.3125 395.2813,646.9625 Q395.4938,646.75 395.6063,646.6875 Q395.7313,646.625 395.8938,646.625 Q396.1563,646.625 396.3563,646.8375 Q396.5688,647.0375 396.5688,647.3125 Q396.5688,647.5875 396.2938,647.9125 Q395.8938,648.375 395.2563,648.6375 Q394.3938,649 393.3563,649 Q392.1438,649 391.1813,648.5 Q390.3938,648.1 389.8438,647.25 Q389.2938,646.3875 389.2938,645.3625 L389.2938,644.4375 Q389.2938,643.375 389.7813,642.4625 Q390.2813,641.5375 391.1563,641.05 Q392.0313,640.55 393.0188,640.55 Q393.6063,640.55 394.1188,640.6875 Q394.6438,640.8125 395.0813,641.1 Z " fill="#000000"/><text fill="#000000" font-family="sans-serif" font-size="11.2" lengthAdjust="spacing" textLength="71.5859" x="409.2688" y="649.0375">ChildrenMovie</text><line style="stroke:#181818;stroke-width:0.4000000000000001;" x1="300" x2="564.1234" y1="657.2" y2="657.2"/><rect fill="none" height="4.8" style="stroke:#C82930;stroke-width:0.8000000000000002;" width="4.8" x="305.6" y="666.6484"/><text fill="#000000" font-family="sans-serif" font-size="11.2" lengthAdjust="spacing" text-decoration="underline" textLength="165.9055" x="315.2" y="672.4859">static final double CHARGE = 1.5</text><rect fill="none" height="4.8" style="stroke:#C82930;stroke-width:0.8000000000000002;" width="4.8" x="305.6" y="681.5453"/><text fill="#000000" font-family="sans-serif" font-size="11.2" lengthAdjust="spacing" text-decoration="underline" textLength="209.475" x="315.2" y="687.3828">static final double EXTRA_CHARGE = 1.5</text><rect fill="none" height="4.8" style="stroke:#C82930;stroke-width:0.8000000000000002;" width="4.8" x="305.6" y="696.4422"/><text fill="#000000" font-family="sans-serif" font-size="11.2" lengthAdjust="spacing" text-decoration="underline" textLength="244.9234" x="315.2" y="702.2797">static final int DAYS_RENTED_THRESHOLD = 3</text><line style="stroke:#181818;stroke-width:0.4000000000000001;" x1="300" x2="564.1234" y1="708.2906" y2="708.2906"/><ellipse cx="308" cy="720.1391" fill="#84BE84" rx="2.4" ry="2.4" style="stroke:#038048;stroke-width:0.8000000000000002;"/><text fill="#000000" font-family="sans-serif" font-size="11.2" lengthAdjust="spacing" textLength="128.8438" x="315.2" y="723.5766">ChildrenMovie(String title)</text><ellipse cx="308" cy="735.0359" fill="#84BE84" rx="2.4" ry="2.4" style="stroke:#038048;stroke-width:0.8000000000000002;"/><text fill="#000000" font-family="sans-serif" font-size="11.2" lengthAdjust="spacing" textLength="171.2211" x="315.2" y="738.4734">double getCharge(int daysRented)</text></g><!--class NewReleaseMovie--><g id="elem_NewReleaseMovie"><rect codeLine="49" fill="#F1F1F1" height="127.7813" id="NewReleaseMovie" rx="2" ry="2" style="stroke:#181818;stroke-width:0.4000000000000001;" width="269.4422" x="593.2" y="624"/><ellipse cx="677.8344" cy="636.8" fill="#ADD1B2" rx="8.8" ry="8.8" style="stroke:#181818;stroke-width:0.8000000000000002;"/><path d="M680.0469,633.5 Q680.1719,633.325 680.3219,633.2375 Q680.4719,633.15 680.6469,633.15 Q680.9469,633.15 681.1344,633.3625 Q681.3219,633.5625 681.3219,634.05 L681.3219,635.2125 Q681.3219,635.7 681.1344,635.9125 Q680.9469,636.125 680.6469,636.125 Q680.3719,636.125 680.2094,635.9625 Q680.0469,635.8125 679.9594,635.4 Q679.9219,635.1125 679.7719,634.9625 Q679.5094,634.6625 679.0219,634.4875 Q678.5344,634.3125 678.0344,634.3125 Q677.4219,634.3125 676.9094,634.575 Q676.4094,634.8375 676.0094,635.4375 Q675.6219,636.0375 675.6219,636.8625 L675.6219,637.7375 Q675.6219,638.725 676.3344,639.3875 Q677.0469,640.0375 678.3219,640.0375 Q679.0719,640.0375 679.5969,639.8375 Q679.9094,639.7125 680.2469,639.3625 Q680.4594,639.15 680.5719,639.0875 Q680.6969,639.025 680.8594,639.025 Q681.1219,639.025 681.3219,639.2375 Q681.5344,639.4375 681.5344,639.7125 Q681.5344,639.9875 681.2594,640.3125 Q680.8594,640.775 680.2219,641.0375 Q679.3594,641.4 678.3219,641.4 Q677.1094,641.4 676.1469,640.9 Q675.3594,640.5 674.8094,639.65 Q674.2594,638.7875 674.2594,637.7625 L674.2594,636.8375 Q674.2594,635.775 674.7469,634.8625 Q675.2469,633.9375 676.1219,633.45 Q676.9969,632.95 677.9844,632.95 Q678.5719,632.95 679.0844,633.0875 Q679.6094,633.2125 680.0469,633.5 Z " fill="#000000"/><text fill="#000000" font-family="sans-serif" font-size="11.2" lengthAdjust="spacing" textLength="93.3734" x="694.2344" y="641.4375">NewReleaseMovie</text><line style="stroke:#181818;stroke-width:0.4000000000000001;" x1="594" x2="861.8422" y1="649.6" y2="649.6"/><rect fill="none" height="4.8" style="stroke:#C82930;stroke-width:0.8000000000000002;" width="4.8" x="599.6" y="659.0484"/><text fill="#000000" font-family="sans-serif" font-size="11.2" lengthAdjust="spacing" text-decoration="underline" textLength="156.5648" x="609.2" y="664.8859">static final double CHARGE = 3</text><rect fill="none" height="4.8" style="stroke:#C82930;stroke-width:0.8000000000000002;" width="4.8" x="599.6" y="673.9453"/><text fill="#000000" font-family="sans-serif" font-size="11.2" lengthAdjust="spacing" text-decoration="underline" textLength="244.9234" x="609.2" y="679.7828">static final int DAYS_RENTED_THRESHOLD = 1</text><rect fill="none" height="4.8" style="stroke:#C82930;stroke-width:0.8000000000000002;" width="4.8" x="599.6" y="688.8422"/><text fill="#000000" font-family="sans-serif" font-size="11.2" lengthAdjust="spacing" text-decoration="underline" textLength="248.6422" x="609.2" y="694.6797">static final int FREQUENT_RENTER_POINTS = 2</text><line style="stroke:#181818;stroke-width:0.4000000000000001;" x1="594" x2="861.8422" y1="700.6906" y2="700.6906"/><ellipse cx="602" cy="712.5391" fill="#84BE84" rx="2.4" ry="2.4" style="stroke:#038048;stroke-width:0.8000000000000002;"/><text fill="#000000" font-family="sans-serif" font-size="11.2" lengthAdjust="spacing" textLength="150.6313" x="609.2" y="715.9766">NewReleaseMovie(String title)</text><ellipse cx="602" cy="727.4359" fill="#84BE84" rx="2.4" ry="2.4" style="stroke:#038048;stroke-width:0.8000000000000002;"/><text fill="#000000" font-family="sans-serif" font-size="11.2" lengthAdjust="spacing" textLength="171.2211" x="609.2" y="730.8734">double getCharge(int daysRented)</text><ellipse cx="602" cy="742.3328" fill="#84BE84" rx="2.4" ry="2.4" style="stroke:#038048;stroke-width:0.8000000000000002;"/><text fill="#000000" font-family="sans-serif" font-size="11.2" lengthAdjust="spacing" textLength="222.2555" x="609.2" y="745.7703">int getFrequentRenterPoints(int daysRented)</text></g><!--link Customer to Rental--><g id="link_Customer_Rental"><path codeLine="58" d="M432,188.144 C432,208.84 432,216.448 432,236.768 " fill="none" id="Customer-Rental" style="stroke:#181818;stroke-width:0.8000000000000002;"/><polygon fill="none" points="432,178.544,428.8,183.344,432,188.144,435.2,183.344,432,178.544" style="stroke:#181818;stroke-width:0.8000000000000002;"/><polygon fill="#181818" points="432,241.568,435.2,234.368,432,237.568,428.8,234.368,432,241.568" style="stroke:#181818;stroke-width:0.8000000000000002;"/><text fill="#000000" font-family="sans-serif" font-size="10.4" lengthAdjust="spacing" textLength="2.8895" x="432.8" y="214.4227">&#160;</text></g><!--link Rental to Movie--><g id="link_Rental_Movie"><path codeLine="59" d="M432,399.264 C432,420.296 432,437.824 432,457.376 " fill="none" id="Rental-to-Movie" style="stroke:#181818;stroke-width:0.8000000000000002;"/><polygon fill="#181818" points="432,462.176,435.2,454.976,432,458.176,428.8,454.976,432,462.176" style="stroke:#181818;stroke-width:0.8000000000000002;"/><text fill="#000000" font-family="sans-serif" font-size="10.4" lengthAdjust="spacing" textLength="2.8895" x="432.8" y="435.2227">&#160;</text></g><!--reverse link Movie to RegularMovie--><g id="link_Movie_RegularMovie"><path codeLine="60" d="M321.9352,582.4287 C290.2312,600.5327 267.56,613.464 235.864,631.56 " fill="none" id="Movie-backto-RegularMovie" style="stroke:#181818;stroke-width:0.8000000000000002;"/><polygon fill="none" points="334.44,575.288,319.5549,578.2604,324.3154,586.5969,334.44,575.288" style="stroke:#181818;stroke-width:0.8000000000000002;"/></g><!--reverse link Movie to ChildrenMovie--><g id="link_Movie_ChildrenMovie"><path codeLine="61" d="M432,589.808 C432,607.808 432,613.352 432,631.352 " fill="none" id="Movie-backto-ChildrenMovie" style="stroke:#181818;stroke-width:0.8000000000000002;"/><polygon fill="none" points="432,575.408,427.2,589.808,436.8,589.808,432,575.408" style="stroke:#181818;stroke-width:0.8000000000000002;"/></g><!--reverse link Movie to NewReleaseMovie--><g id="link_Movie_NewReleaseMovie"><path codeLine="62" d="M542.8902,582.3841 C570.3942,597.9601 587.96,607.904 616.184,623.888 " fill="none" id="Movie-backto-NewReleaseMovie" style="stroke:#181818;stroke-width:0.8000000000000002;"/><polygon fill="none" points="530.36,575.288,540.5248,586.5608,545.2556,578.2073,530.36,575.288" style="stroke:#181818;stroke-width:0.8000000000000002;"/></g><!--SRC=[hLJBJiCm4BpdArQSWcWG3t6XfL9fKue41L8ZmQaoYIcMaXXi1yJhtt7Y1saeHGLwQ2pFpcPcrd6SOY6WNmZ9CiBXrGFr2s0YESrdaEECjCtM2HMo4v5SuhGBl7eAZMqulb_ZhHliaT44S99eggyVfe6jCRGPaMF5z1lRGc99CaKmG009AsvIKjOZfjhqxp2V4OVIN3feoCb3eQZbQma_PmeJhh23ke1055c6ENqXMfhmxTPp2mxfiCXZILdUGItG1IrGj7lEOYB4klVkUN6LeJ5c4pnbZvH0LlwtQxeI_2mgBOdDpkHIgsyrAcqSnjV00Iwepppced2K9Ibi6AMggbhuNsU2g4pBVMKLtmZ9SIn1UzRKng6HPNcxtjol8xQ_Q_L5_5Bt2wqiPYnqO8SrArBChVxNyeZH-3q0lO1RcgjP6cNzKIyw2k40TZQtVYWDhr3Kcph2zkRUTuHIyg1tFPb6uHY5WoaQHU5aT7OoAD_ZZiQdoeKP_XYTCzo_escYFheL7IynyA-ET-r5KfVvHyjZyXIHb611LZIz-ni7syj8moYyk5GSJOocvsV7OpIfJRgXzNVEL_zEL5RkwcT1mfxoe6ilidrOM_FCsa8wo0hHoywRXkQEQXER6seJR3ZtFW00]--></g></svg>