<svg xmlns="http://www.w3.org/2000/svg" xmlns:xlink="http://www.w3.org/1999/xlink" contentStyleType="text/css" height="1127px" preserveAspectRatio="none" style="width:941px;height:1127px;background:#FFFFFF;" version="1.1" viewBox="0 0 941 1127" width="941px" zoomAndPan="magnify"><defs/><g><!--class Customer--><g id="elem_Customer"><rect codeLine="2" fill="#F1F1F1" height="215.5898" id="Customer" rx="2.5" ry="2.5" style="stroke:#181818;stroke-width:0.5;" width="478.7988" x="225.5" y="7"/><ellipse cx="430.3081" cy="23" fill="#ADD1B2" rx="11" ry="11" style="stroke:#181818;stroke-width:1.0;"/><path d="M433.0737,18.875 Q433.23,18.6563 433.4175,18.5469 Q433.605,18.4375 433.8237,18.4375 Q434.1987,18.4375 434.4331,18.7031 Q434.6675,18.9531 434.6675,19.5625 L434.6675,21.0156 Q434.6675,21.625 434.4331,21.8906 Q434.1987,22.1563 433.8237,22.1563 Q433.48,22.1563 433.2769,21.9531 Q433.0737,21.7656 432.9644,21.25 Q432.9175,20.8906 432.73,20.7031 Q432.4019,20.3281 431.7925,20.1094 Q431.1831,19.8906 430.5581,19.8906 Q429.7925,19.8906 429.1519,20.2188 Q428.5269,20.5469 428.0269,21.2969 Q427.5425,22.0469 427.5425,23.0781 L427.5425,24.1719 Q427.5425,25.4063 428.4331,26.2344 Q429.3237,27.0469 430.9175,27.0469 Q431.855,27.0469 432.5112,26.7969 Q432.9019,26.6406 433.3237,26.2031 Q433.5894,25.9375 433.73,25.8594 Q433.8862,25.7813 434.0894,25.7813 Q434.4175,25.7813 434.6675,26.0469 Q434.9331,26.2969 434.9331,26.6406 Q434.9331,26.9844 434.5894,27.3906 Q434.0894,27.9688 433.2925,28.2969 Q432.2144,28.75 430.9175,28.75 Q429.4019,28.75 428.1987,28.125 Q427.2144,27.625 426.5269,26.5625 Q425.8394,25.4844 425.8394,24.2031 L425.8394,23.0469 Q425.8394,21.7188 426.4487,20.5781 Q427.0737,19.4219 428.1675,18.8125 Q429.2612,18.1875 430.4956,18.1875 Q431.23,18.1875 431.8706,18.3594 Q432.5269,18.5156 433.0737,18.875 Z " fill="#000000"/><text fill="#000000" font-family="sans-serif" font-size="14" lengthAdjust="spacing" textLength="60.6826" x="450.8081" y="28.7969">Customer</text><line style="stroke:#181818;stroke-width:0.5;" x1="226.5" x2="703.2988" y1="39" y2="39"/><rect fill="none" height="6" style="stroke:#C82930;stroke-width:1.0;" width="6" x="233.5" y="50.8105"/><text fill="#000000" font-family="sans-serif" font-size="14" lengthAdjust="spacing" textLength="79.3721" x="245.5" y="58.1074">String name;</text><rect fill="none" height="6" style="stroke:#C82930;stroke-width:1.0;" width="6" x="233.5" y="69.4316"/><text fill="#000000" font-family="sans-serif" font-size="14" lengthAdjust="spacing" textLength="128.4063" x="245.5" y="76.7285">List&lt;Rental&gt; rentals;</text><line style="stroke:#181818;stroke-width:0.5;" x1="226.5" x2="703.2988" y1="84.2422" y2="84.2422"/><ellipse cx="236.5" cy="99.0527" fill="#84BE84" rx="3" ry="3" style="stroke:#038048;stroke-width:1.0;"/><text fill="#000000" font-family="sans-serif" font-size="14" lengthAdjust="spacing" textLength="145.4893" x="245.5" y="103.3496">Costumer(String name)</text><ellipse cx="236.5" cy="117.6738" fill="#84BE84" rx="3" ry="3" style="stroke:#038048;stroke-width:1.0;"/><text fill="#000000" font-family="sans-serif" font-size="14" lengthAdjust="spacing" textLength="182.1025" x="245.5" y="121.9707">void addRental(Rental rental)</text><ellipse cx="236.5" cy="136.2949" fill="#84BE84" rx="3" ry="3" style="stroke:#038048;stroke-width:1.0;"/><text fill="#000000" font-family="sans-serif" font-size="14" lengthAdjust="spacing" textLength="106.5928" x="245.5" y="140.5918">String getName()</text><ellipse cx="236.5" cy="154.916" fill="#84BE84" rx="3" ry="3" style="stroke:#038048;stroke-width:1.0;"/><text fill="#000000" font-family="sans-serif" font-size="14" lengthAdjust="spacing" textLength="111.2617" x="245.5" y="159.2129">String statement()</text><rect fill="#F24D5C" height="6" style="stroke:#C82930;stroke-width:1.0;" width="6" x="233.5" y="170.5371"/><text fill="#000000" font-family="sans-serif" font-size="14" lengthAdjust="spacing" textLength="151.7578" x="245.5" y="177.834">double getTotalCharge()</text><rect fill="#F24D5C" height="6" style="stroke:#C82930;stroke-width:1.0;" width="6" x="233.5" y="189.1582"/><text fill="#000000" font-family="sans-serif" font-size="14" lengthAdjust="spacing" textLength="215.5508" x="245.5" y="196.4551">int getTotalFrequentRenterPoints()</text><rect fill="#F24D5C" height="6" style="stroke:#C82930;stroke-width:1.0;" width="6" x="233.5" y="207.7793"/><text fill="#000000" font-family="sans-serif" font-size="14" lengthAdjust="spacing" textLength="452.7988" x="245.5" y="215.0762">&lt;T&gt; T summarizeRentals(T summary, BiFunction&lt;T, Rental, T&gt; process)</text></g><!--class Rental--><g id="elem_Rental"><rect codeLine="14" fill="#F1F1F1" height="178.3477" id="Rental" rx="2.5" ry="2.5" style="stroke:#181818;stroke-width:0.5;" width="255.5439" x="337" y="283"/><ellipse cx="440.2876" cy="299" fill="#ADD1B2" rx="11" ry="11" style="stroke:#181818;stroke-width:1.0;"/><path d="M443.0532,294.875 Q443.2095,294.6563 443.397,294.5469 Q443.5845,294.4375 443.8032,294.4375 Q444.1782,294.4375 444.4126,294.7031 Q444.647,294.9531 444.647,295.5625 L444.647,297.0156 Q444.647,297.625 444.4126,297.8906 Q444.1782,298.1563 443.8032,298.1563 Q443.4595,298.1563 443.2563,297.9531 Q443.0532,297.7656 442.9438,297.25 Q442.897,296.8906 442.7095,296.7031 Q442.3813,296.3281 441.772,296.1094 Q441.1626,295.8906 440.5376,295.8906 Q439.772,295.8906 439.1313,296.2188 Q438.5063,296.5469 438.0063,297.2969 Q437.522,298.0469 437.522,299.0781 L437.522,300.1719 Q437.522,301.4063 438.4126,302.2344 Q439.3032,303.0469 440.897,303.0469 Q441.8345,303.0469 442.4907,302.7969 Q442.8813,302.6406 443.3032,302.2031 Q443.5688,301.9375 443.7095,301.8594 Q443.8657,301.7813 444.0688,301.7813 Q444.397,301.7813 444.647,302.0469 Q444.9126,302.2969 444.9126,302.6406 Q444.9126,302.9844 444.5688,303.3906 Q444.0688,303.9688 443.272,304.2969 Q442.1938,304.75 440.897,304.75 Q439.3813,304.75 438.1782,304.125 Q437.1938,303.625 436.5063,302.5625 Q435.8188,301.4844 435.8188,300.2031 L435.8188,299.0469 Q435.8188,297.7188 436.4282,296.5781 Q437.0532,295.4219 438.147,294.8125 Q439.2407,294.1875 440.4751,294.1875 Q441.2095,294.1875 441.8501,294.3594 Q442.5063,294.5156 443.0532,294.875 Z " fill="#000000"/><text fill="#000000" font-family="sans-serif" font-size="14" lengthAdjust="spacing" textLength="40.4688" x="460.7876" y="304.7969">Rental</text><line style="stroke:#181818;stroke-width:0.5;" x1="338" x2="591.5439" y1="315" y2="315"/><rect fill="none" height="6" style="stroke:#C82930;stroke-width:1.0;" width="6" x="345" y="326.8105"/><text fill="#000000" font-family="sans-serif" font-size="14" lengthAdjust="spacing" textLength="82.4688" x="357" y="334.1074">Movie movie;</text><rect fill="none" height="6" style="stroke:#C82930;stroke-width:1.0;" width="6" x="345" y="345.4316"/><text fill="#000000" font-family="sans-serif" font-size="14" lengthAdjust="spacing" textLength="97.2822" x="357" y="352.7285">int daysRented;</text><line style="stroke:#181818;stroke-width:0.5;" x1="338" x2="591.5439" y1="360.2422" y2="360.2422"/><ellipse cx="348" cy="375.0527" fill="#84BE84" rx="3" ry="3" style="stroke:#038048;stroke-width:1.0;"/><text fill="#000000" font-family="sans-serif" font-size="14" lengthAdjust="spacing" textLength="229.5439" x="357" y="379.3496">Rental(Movie movie, int daysRented)</text><ellipse cx="348" cy="393.6738" fill="#84BE84" rx="3" ry="3" style="stroke:#038048;stroke-width:1.0;"/><text fill="#000000" font-family="sans-serif" font-size="14" lengthAdjust="spacing" textLength="124.5029" x="357" y="397.9707">int getDaysRented()</text><ellipse cx="348" cy="412.2949" fill="#84BE84" rx="3" ry="3" style="stroke:#038048;stroke-width:1.0;"/><text fill="#000000" font-family="sans-serif" font-size="14" lengthAdjust="spacing" textLength="107.3652" x="357" y="416.5918">Movie getMovie()</text><ellipse cx="348" cy="430.916" fill="#84BE84" rx="3" ry="3" style="stroke:#038048;stroke-width:1.0;"/><text fill="#000000" font-family="sans-serif" font-size="14" lengthAdjust="spacing" textLength="120.6338" x="357" y="435.2129">double getCharge()</text><ellipse cx="348" cy="449.5371" fill="#84BE84" rx="3" ry="3" style="stroke:#038048;stroke-width:1.0;"/><text fill="#000000" font-family="sans-serif" font-size="14" lengthAdjust="spacing" textLength="184.4268" x="357" y="453.834">int getFrequentRenterPoints()</text></g><!--class Movie--><g id="elem_Movie"><rect codeLine="24" fill="#F1F1F1" height="234.2109" id="Movie" rx="2.5" ry="2.5" style="stroke:#181818;stroke-width:0.5;" width="303.8193" x="313" y="521"/><ellipse cx="441.9873" cy="537" fill="#ADD1B2" rx="11" ry="11" style="stroke:#181818;stroke-width:1.0;"/><path d="M444.7529,532.875 Q444.9092,532.6563 445.0967,532.5469 Q445.2842,532.4375 445.5029,532.4375 Q445.8779,532.4375 446.1123,532.7031 Q446.3467,532.9531 446.3467,533.5625 L446.3467,535.0156 Q446.3467,535.625 446.1123,535.8906 Q445.8779,536.1563 445.5029,536.1563 Q445.1592,536.1563 444.9561,535.9531 Q444.7529,535.7656 444.6436,535.25 Q444.5967,534.8906 444.4092,534.7031 Q444.0811,534.3281 443.4717,534.1094 Q442.8623,533.8906 442.2373,533.8906 Q441.4717,533.8906 440.8311,534.2188 Q440.2061,534.5469 439.7061,535.2969 Q439.2217,536.0469 439.2217,537.0781 L439.2217,538.1719 Q439.2217,539.4063 440.1123,540.2344 Q441.0029,541.0469 442.5967,541.0469 Q443.5342,541.0469 444.1904,540.7969 Q444.5811,540.6406 445.0029,540.2031 Q445.2686,539.9375 445.4092,539.8594 Q445.5654,539.7813 445.7686,539.7813 Q446.0967,539.7813 446.3467,540.0469 Q446.6123,540.2969 446.6123,540.6406 Q446.6123,540.9844 446.2686,541.3906 Q445.7686,541.9688 444.9717,542.2969 Q443.8936,542.75 442.5967,542.75 Q441.0811,542.75 439.8779,542.125 Q438.8936,541.625 438.2061,540.5625 Q437.5186,539.4844 437.5186,538.2031 L437.5186,537.0469 Q437.5186,535.7188 438.1279,534.5781 Q438.7529,533.4219 439.8467,532.8125 Q440.9404,532.1875 442.1748,532.1875 Q442.9092,532.1875 443.5498,532.3594 Q444.2061,532.5156 444.7529,532.875 Z " fill="#000000"/><text fill="#000000" font-family="sans-serif" font-size="14" lengthAdjust="spacing" textLength="37.3447" x="462.4873" y="542.7969">Movie</text><line style="stroke:#181818;stroke-width:0.5;" x1="314" x2="615.8193" y1="553" y2="553"/><ellipse cx="324" cy="567.8105" fill="none" rx="3" ry="3" style="stroke:#038048;stroke-width:1.0;"/><text fill="#000000" font-family="sans-serif" font-size="14" lengthAdjust="spacing" textLength="180.127" x="333" y="572.1074">static final int REGULAR = 0;</text><ellipse cx="324" cy="586.4316" fill="none" rx="3" ry="3" style="stroke:#038048;stroke-width:1.0;"/><text fill="#000000" font-family="sans-serif" font-size="14" lengthAdjust="spacing" textLength="217.4785" x="333" y="590.7285">static final int NEW_RELEASE = 1;</text><ellipse cx="324" cy="605.0527" fill="none" rx="3" ry="3" style="stroke:#038048;stroke-width:1.0;"/><text fill="#000000" font-family="sans-serif" font-size="14" lengthAdjust="spacing" textLength="193.3477" x="333" y="609.3496">static final int CHILDRENS = 2;</text><rect fill="none" height="6" style="stroke:#C82930;stroke-width:1.0;" width="6" x="321" y="620.6738"/><text fill="#000000" font-family="sans-serif" font-size="14" lengthAdjust="spacing" textLength="66.1377" x="333" y="627.9707">String title;</text><rect fill="none" height="6" style="stroke:#C82930;stroke-width:1.0;" width="6" x="321" y="639.2949"/><text fill="#000000" font-family="sans-serif" font-size="14" lengthAdjust="spacing" textLength="70.0205" x="333" y="646.5918">Price price;</text><line style="stroke:#181818;stroke-width:0.5;" x1="314" x2="615.8193" y1="654.1055" y2="654.1055"/><ellipse cx="324" cy="668.916" fill="#84BE84" rx="3" ry="3" style="stroke:#038048;stroke-width:1.0;"/><text fill="#000000" font-family="sans-serif" font-size="14" lengthAdjust="spacing" textLength="199.1855" x="333" y="673.2129">Movie(String title, int priceCode)</text><ellipse cx="324" cy="687.5371" fill="#84BE84" rx="3" ry="3" style="stroke:#038048;stroke-width:1.0;"/><text fill="#000000" font-family="sans-serif" font-size="14" lengthAdjust="spacing" textLength="214.0264" x="333" y="691.834">double getCharge(int daysRented)</text><ellipse cx="324" cy="706.1582" fill="#84BE84" rx="3" ry="3" style="stroke:#038048;stroke-width:1.0;"/><text fill="#000000" font-family="sans-serif" font-size="14" lengthAdjust="spacing" textLength="277.8193" x="333" y="710.4551">int getFrequentRenterPoints(int daysRented)</text><ellipse cx="324" cy="724.7793" fill="#84BE84" rx="3" ry="3" style="stroke:#038048;stroke-width:1.0;"/><text fill="#000000" font-family="sans-serif" font-size="14" lengthAdjust="spacing" textLength="205.4268" x="333" y="729.0762">void setPriceCode(int priceCode)</text><ellipse cx="324" cy="743.4004" fill="#84BE84" rx="3" ry="3" style="stroke:#038048;stroke-width:1.0;"/><text fill="#000000" font-family="sans-serif" font-size="14" lengthAdjust="spacing" textLength="95.6963" x="333" y="747.6973">String getTitle()</text></g><!--class Price--><g id="elem_Price"><rect codeLine="37" fill="#F1F1F1" height="103.8633" id="Price" rx="2.5" ry="2.5" style="stroke:#181818;stroke-width:0.5;" width="303.8193" x="313" y="815"/><ellipse cx="444.7114" cy="831" fill="#ADD1B2" rx="11" ry="11" style="stroke:#181818;stroke-width:1.0;"/><path d="M447.4771,826.875 Q447.6333,826.6563 447.8208,826.5469 Q448.0083,826.4375 448.2271,826.4375 Q448.6021,826.4375 448.8364,826.7031 Q449.0708,826.9531 449.0708,827.5625 L449.0708,829.0156 Q449.0708,829.625 448.8364,829.8906 Q448.6021,830.1563 448.2271,830.1563 Q447.8833,830.1563 447.6802,829.9531 Q447.4771,829.7656 447.3677,829.25 Q447.3208,828.8906 447.1333,828.7031 Q446.8052,828.3281 446.1958,828.1094 Q445.5864,827.8906 444.9614,827.8906 Q444.1958,827.8906 443.5552,828.2188 Q442.9302,828.5469 442.4302,829.2969 Q441.9458,830.0469 441.9458,831.0781 L441.9458,832.1719 Q441.9458,833.4063 442.8364,834.2344 Q443.7271,835.0469 445.3208,835.0469 Q446.2583,835.0469 446.9146,834.7969 Q447.3052,834.6406 447.7271,834.2031 Q447.9927,833.9375 448.1333,833.8594 Q448.2896,833.7813 448.4927,833.7813 Q448.8208,833.7813 449.0708,834.0469 Q449.3364,834.2969 449.3364,834.6406 Q449.3364,834.9844 448.9927,835.3906 Q448.4927,835.9688 447.6958,836.2969 Q446.6177,836.75 445.3208,836.75 Q443.8052,836.75 442.6021,836.125 Q441.6177,835.625 440.9302,834.5625 Q440.2427,833.4844 440.2427,832.2031 L440.2427,831.0469 Q440.2427,829.7188 440.8521,828.5781 Q441.4771,827.4219 442.5708,826.8125 Q443.6646,826.1875 444.8989,826.1875 Q445.6333,826.1875 446.2739,826.3594 Q446.9302,826.5156 447.4771,826.875 Z " fill="#000000"/><text fill="#000000" font-family="sans-serif" font-size="14" lengthAdjust="spacing" textLength="31.8965" x="465.2114" y="836.7969">Price</text><line style="stroke:#181818;stroke-width:0.5;" x1="314" x2="615.8193" y1="847" y2="847"/><line style="stroke:#181818;stroke-width:0.5;" x1="314" x2="615.8193" y1="855" y2="855"/><ellipse cx="324" cy="869.8105" fill="#84BE84" rx="3" ry="3" style="stroke:#038048;stroke-width:1.0;"/><text fill="#000000" font-family="sans-serif" font-size="14" lengthAdjust="spacing" textLength="112.8271" x="333" y="874.1074">int getPriceCode()</text><ellipse cx="324" cy="888.4316" fill="#84BE84" rx="3" ry="3" style="stroke:#038048;stroke-width:1.0;"/><text fill="#000000" font-family="sans-serif" font-size="14" lengthAdjust="spacing" textLength="214.0264" x="333" y="892.7285">double getCharge(int daysRented)</text><ellipse cx="324" cy="907.0527" fill="#84BE84" rx="3" ry="3" style="stroke:#038048;stroke-width:1.0;"/><text fill="#000000" font-family="sans-serif" font-size="14" lengthAdjust="spacing" textLength="277.8193" x="333" y="911.3496">int getFrequentRenterPoints(int daysRented)</text></g><!--class RegularPrice--><g id="elem_RegularPrice"><rect codeLine="42" fill="#F1F1F1" height="122.4844" id="RegularPrice" rx="2.5" ry="2.5" style="stroke:#181818;stroke-width:0.5;" width="291.6855" x="7" y="988.5"/><ellipse cx="108.1309" cy="1004.5" fill="#ADD1B2" rx="11" ry="11" style="stroke:#181818;stroke-width:1.0;"/><path d="M110.8965,1000.375 Q111.0527,1000.1563 111.2402,1000.0469 Q111.4277,999.9375 111.6465,999.9375 Q112.0215,999.9375 112.2559,1000.2031 Q112.4902,1000.4531 112.4902,1001.0625 L112.4902,1002.5156 Q112.4902,1003.125 112.2559,1003.3906 Q112.0215,1003.6563 111.6465,1003.6563 Q111.3027,1003.6563 111.0996,1003.4531 Q110.8965,1003.2656 110.7871,1002.75 Q110.7402,1002.3906 110.5527,1002.2031 Q110.2246,1001.8281 109.6152,1001.6094 Q109.0059,1001.3906 108.3809,1001.3906 Q107.6152,1001.3906 106.9746,1001.7188 Q106.3496,1002.0469 105.8496,1002.7969 Q105.3652,1003.5469 105.3652,1004.5781 L105.3652,1005.6719 Q105.3652,1006.9063 106.2559,1007.7344 Q107.1465,1008.5469 108.7402,1008.5469 Q109.6777,1008.5469 110.334,1008.2969 Q110.7246,1008.1406 111.1465,1007.7031 Q111.4121,1007.4375 111.5527,1007.3594 Q111.709,1007.2813 111.9121,1007.2813 Q112.2402,1007.2813 112.4902,1007.5469 Q112.7559,1007.7969 112.7559,1008.1406 Q112.7559,1008.4844 112.4121,1008.8906 Q111.9121,1009.4688 111.1152,1009.7969 Q110.0371,1010.25 108.7402,1010.25 Q107.2246,1010.25 106.0215,1009.625 Q105.0371,1009.125 104.3496,1008.0625 Q103.6621,1006.9844 103.6621,1005.7031 L103.6621,1004.5469 Q103.6621,1003.2188 104.2715,1002.0781 Q104.8965,1000.9219 105.9902,1000.3125 Q107.084,999.6875 108.3184,999.6875 Q109.0527,999.6875 109.6934,999.8594 Q110.3496,1000.0156 110.8965,1000.375 Z " fill="#000000"/><text fill="#000000" font-family="sans-serif" font-size="14" lengthAdjust="spacing" textLength="80.9238" x="128.6309" y="1010.2969">RegularPrice</text><line style="stroke:#181818;stroke-width:0.5;" x1="8" x2="297.6855" y1="1020.5" y2="1020.5"/><rect fill="none" height="6" style="stroke:#C82930;stroke-width:1.0;" width="6" x="15" y="1032.3105"/><text fill="#000000" font-family="sans-serif" font-size="14" lengthAdjust="spacing" text-decoration="underline" textLength="145.1338" x="27" y="1039.6074">double CHARGE = 2.0;</text><rect fill="none" height="6" style="stroke:#C82930;stroke-width:1.0;" width="6" x="15" y="1050.9316"/><text fill="#000000" font-family="sans-serif" font-size="14" lengthAdjust="spacing" text-decoration="underline" textLength="195.6992" x="27" y="1058.2285">double EXTRA CHARGE = 1.5;</text><rect fill="none" height="6" style="stroke:#C82930;stroke-width:1.0;" width="6" x="15" y="1069.5527"/><text fill="#000000" font-family="sans-serif" font-size="14" lengthAdjust="spacing" text-decoration="underline" textLength="265.6855" x="27" y="1076.8496">final int DAYS RENTED THRESHOLD = 2;</text><line style="stroke:#181818;stroke-width:0.5;" x1="8" x2="297.6855" y1="1084.3633" y2="1084.3633"/><ellipse cx="18" cy="1099.1738" fill="#84BE84" rx="3" ry="3" style="stroke:#038048;stroke-width:1.0;"/><text fill="#000000" font-family="sans-serif" font-size="14" lengthAdjust="spacing" textLength="214.0264" x="27" y="1103.4707">double getCharge(int daysRented)</text></g><!--class ChildrenPrice--><g id="elem_ChildrenPrice"><rect codeLine="48" fill="#F1F1F1" height="122.4844" id="ChildrenPrice" rx="2.5" ry="2.5" style="stroke:#181818;stroke-width:0.5;" width="262.1133" x="334" y="988.5"/><ellipse cx="418.7896" cy="1004.5" fill="#ADD1B2" rx="11" ry="11" style="stroke:#181818;stroke-width:1.0;"/><path d="M421.5552,1000.375 Q421.7114,1000.1563 421.8989,1000.0469 Q422.0864,999.9375 422.3052,999.9375 Q422.6802,999.9375 422.9146,1000.2031 Q423.1489,1000.4531 423.1489,1001.0625 L423.1489,1002.5156 Q423.1489,1003.125 422.9146,1003.3906 Q422.6802,1003.6563 422.3052,1003.6563 Q421.9614,1003.6563 421.7583,1003.4531 Q421.5552,1003.2656 421.4458,1002.75 Q421.3989,1002.3906 421.2114,1002.2031 Q420.8833,1001.8281 420.2739,1001.6094 Q419.6646,1001.3906 419.0396,1001.3906 Q418.2739,1001.3906 417.6333,1001.7188 Q417.0083,1002.0469 416.5083,1002.7969 Q416.0239,1003.5469 416.0239,1004.5781 L416.0239,1005.6719 Q416.0239,1006.9063 416.9146,1007.7344 Q417.8052,1008.5469 419.3989,1008.5469 Q420.3364,1008.5469 420.9927,1008.2969 Q421.3833,1008.1406 421.8052,1007.7031 Q422.0708,1007.4375 422.2114,1007.3594 Q422.3677,1007.2813 422.5708,1007.2813 Q422.8989,1007.2813 423.1489,1007.5469 Q423.4146,1007.7969 423.4146,1008.1406 Q423.4146,1008.4844 423.0708,1008.8906 Q422.5708,1009.4688 421.7739,1009.7969 Q420.6958,1010.25 419.3989,1010.25 Q417.8833,1010.25 416.6802,1009.625 Q415.6958,1009.125 415.0083,1008.0625 Q414.3208,1006.9844 414.3208,1005.7031 L414.3208,1004.5469 Q414.3208,1003.2188 414.9302,1002.0781 Q415.5552,1000.9219 416.6489,1000.3125 Q417.7427,999.6875 418.9771,999.6875 Q419.7114,999.6875 420.3521,999.8594 Q421.0083,1000.0156 421.5552,1000.375 Z " fill="#000000"/><text fill="#000000" font-family="sans-serif" font-size="14" lengthAdjust="spacing" textLength="84.0342" x="439.2896" y="1010.2969">ChildrenPrice</text><line style="stroke:#181818;stroke-width:0.5;" x1="335" x2="595.1133" y1="1020.5" y2="1020.5"/><rect fill="none" height="6" style="stroke:#C82930;stroke-width:1.0;" width="6" x="342" y="1032.3105"/><text fill="#000000" font-family="sans-serif" font-size="14" lengthAdjust="spacing" text-decoration="underline" textLength="145.1338" x="354" y="1039.6074">double CHARGE = 1.5;</text><rect fill="none" height="6" style="stroke:#C82930;stroke-width:1.0;" width="6" x="342" y="1050.9316"/><text fill="#000000" font-family="sans-serif" font-size="14" lengthAdjust="spacing" text-decoration="underline" textLength="195.6992" x="354" y="1058.2285">double EXTRA CHARGE = 1.5;</text><rect fill="none" height="6" style="stroke:#C82930;stroke-width:1.0;" width="6" x="342" y="1069.5527"/><text fill="#000000" font-family="sans-serif" font-size="14" lengthAdjust="spacing" text-decoration="underline" textLength="236.1133" x="354" y="1076.8496">int DAYS RENTED THRESHOLD = 3;</text><line style="stroke:#181818;stroke-width:0.5;" x1="335" x2="595.1133" y1="1084.3633" y2="1084.3633"/><ellipse cx="345" cy="1099.1738" fill="#84BE84" rx="3" ry="3" style="stroke:#038048;stroke-width:1.0;"/><text fill="#000000" font-family="sans-serif" font-size="14" lengthAdjust="spacing" textLength="214.0264" x="354" y="1103.4707">double getCharge(int daysRented)</text></g><!--class NewReleasePrice--><g id="elem_NewReleasePrice"><rect codeLine="54" fill="#F1F1F1" height="141.1055" id="NewReleasePrice" rx="2.5" ry="2.5" style="stroke:#181818;stroke-width:0.5;" width="303.8193" x="631" y="979"/><ellipse cx="723.0254" cy="995" fill="#ADD1B2" rx="11" ry="11" style="stroke:#181818;stroke-width:1.0;"/><path d="M725.791,990.875 Q725.9473,990.6563 726.1348,990.5469 Q726.3223,990.4375 726.541,990.4375 Q726.916,990.4375 727.1504,990.7031 Q727.3848,990.9531 727.3848,991.5625 L727.3848,993.0156 Q727.3848,993.625 727.1504,993.8906 Q726.916,994.1563 726.541,994.1563 Q726.1973,994.1563 725.9941,993.9531 Q725.791,993.7656 725.6816,993.25 Q725.6348,992.8906 725.4473,992.7031 Q725.1191,992.3281 724.5098,992.1094 Q723.9004,991.8906 723.2754,991.8906 Q722.5098,991.8906 721.8691,992.2188 Q721.2441,992.5469 720.7441,993.2969 Q720.2598,994.0469 720.2598,995.0781 L720.2598,996.1719 Q720.2598,997.4063 721.1504,998.2344 Q722.041,999.0469 723.6348,999.0469 Q724.5723,999.0469 725.2285,998.7969 Q725.6191,998.6406 726.041,998.2031 Q726.3066,997.9375 726.4473,997.8594 Q726.6035,997.7813 726.8066,997.7813 Q727.1348,997.7813 727.3848,998.0469 Q727.6504,998.2969 727.6504,998.6406 Q727.6504,998.9844 727.3066,999.3906 Q726.8066,999.9688 726.0098,1000.2969 Q724.9316,1000.75 723.6348,1000.75 Q722.1191,1000.75 720.916,1000.125 Q719.9316,999.625 719.2441,998.5625 Q718.5566,997.4844 718.5566,996.2031 L718.5566,995.0469 Q718.5566,993.7188 719.166,992.5781 Q719.791,991.4219 720.8848,990.8125 Q721.9785,990.1875 723.2129,990.1875 Q723.9473,990.1875 724.5879,990.3594 Q725.2441,990.5156 725.791,990.875 Z " fill="#000000"/><text fill="#000000" font-family="sans-serif" font-size="14" lengthAdjust="spacing" textLength="111.2686" x="743.5254" y="1000.7969">NewReleasePrice</text><line style="stroke:#181818;stroke-width:0.5;" x1="632" x2="933.8193" y1="1011" y2="1011"/><rect fill="none" height="6" style="stroke:#C82930;stroke-width:1.0;" width="6" x="639" y="1022.8105"/><text fill="#000000" font-family="sans-serif" font-size="14" lengthAdjust="spacing" text-decoration="underline" textLength="133.458" x="651" y="1030.1074">double CHARGE = 3;</text><rect fill="none" height="6" style="stroke:#C82930;stroke-width:1.0;" width="6" x="639" y="1041.4316"/><text fill="#000000" font-family="sans-serif" font-size="14" lengthAdjust="spacing" text-decoration="underline" textLength="184.0234" x="651" y="1048.7285">double EXTRA CHARGE = 1;</text><rect fill="none" height="6" style="stroke:#C82930;stroke-width:1.0;" width="6" x="639" y="1060.0527"/><text fill="#000000" font-family="sans-serif" font-size="14" lengthAdjust="spacing" text-decoration="underline" textLength="236.1133" x="651" y="1067.3496">int DAYS RENTED THRESHOLD = 2;</text><line style="stroke:#181818;stroke-width:0.5;" x1="632" x2="933.8193" y1="1074.8633" y2="1074.8633"/><ellipse cx="642" cy="1089.6738" fill="#84BE84" rx="3" ry="3" style="stroke:#038048;stroke-width:1.0;"/><text fill="#000000" font-family="sans-serif" font-size="14" lengthAdjust="spacing" textLength="214.0264" x="651" y="1093.9707">double getCharge(int daysRented)</text><ellipse cx="642" cy="1108.2949" fill="#84BE84" rx="3" ry="3" style="stroke:#038048;stroke-width:1.0;"/><text fill="#000000" font-family="sans-serif" font-size="14" lengthAdjust="spacing" textLength="277.8193" x="651" y="1112.5918">int getFrequentRenterPoints(int daysRented)</text></g><!--link Customer to Rental--><g id="link_Customer_Rental"><path codeLine="62" d="M465,235.03 C465,254.93 465,257.52 465,276.77 " fill="none" id="Customer-Rental" style="stroke:#181818;stroke-width:1.0;"/><polygon fill="none" points="465,223.03,461,229.03,465,235.03,469,229.03,465,223.03" style="stroke:#181818;stroke-width:1.0;"/><polygon fill="#181818" points="465,282.77,469,273.77,465,277.77,461,273.77,465,282.77" style="stroke:#181818;stroke-width:1.0;"/></g><!--link Rental to Movie--><g id="link_Rental_Movie"><path codeLine="63" d="M465,461.28 C465,480.31 465,494.72 465,514.64 " fill="none" id="Rental-to-Movie" style="stroke:#181818;stroke-width:1.0;"/><polygon fill="#181818" points="465,520.64,469,511.64,465,515.64,461,511.64,465,520.64" style="stroke:#181818;stroke-width:1.0;"/></g><!--reverse link Movie to Price--><g id="link_Movie_Price"><path codeLine="64" d="M465,767.16 C465,788.1 465,796.93 465,814.77 " fill="none" id="Movie-backto-Price" style="stroke:#181818;stroke-width:1.0;"/><polygon fill="#181818" points="465,755.16,461,761.16,465,767.16,469,761.16,465,755.16" style="stroke:#181818;stroke-width:1.0;"/></g><!--reverse link Price to RegularPrice--><g id="link_Price_RegularPrice"><path codeLine="65" d="M361.2597,928.014 C323.9597,949.594 295.81,965.88 256.95,988.36 " fill="none" id="Price-backto-RegularPrice" style="stroke:#181818;stroke-width:1.0;"/><polygon fill="none" points="376.84,919,358.255,922.8206,364.2643,933.2075,376.84,919" style="stroke:#181818;stroke-width:1.0;"/></g><!--reverse link Price to ChildrenPrice--><g id="link_Price_ChildrenPrice"><path codeLine="66" d="M465,937.24 C465,958.71 465,965.83 465,988.18 " fill="none" id="Price-backto-ChildrenPrice" style="stroke:#181818;stroke-width:1.0;"/><polygon fill="none" points="465,919.24,459,937.24,471,937.24,465,919.24" style="stroke:#181818;stroke-width:1.0;"/></g><!--reverse link Price to NewReleasePrice--><g id="link_Price_NewReleasePrice"><path codeLine="67" d="M570.5045,927.8847 C603.2945,946.4947 625.29,958.98 660.44,978.93 " fill="none" id="Price-backto-NewReleasePrice" style="stroke:#181818;stroke-width:1.0;"/><polygon fill="none" points="554.85,919,567.5429,933.1029,573.466,922.6666,554.85,919" style="stroke:#181818;stroke-width:1.0;"/></g><!--SRC=[jLHDSvim4BthL-Y8MplJ9DCJhcSeaBWprFK0dRIdZWggenb0hIIIILt_zwualeATXXnw0NltFVRjsvMoWaY9_LegNbA1zsY14oLOjSCLAQaBVoCcrJAcbIB52WlpbYvwZNqkLGqSPu2VOKZSSPPZakUMuzXNmvn1li7lgDe0nHc4f2AAbW24u0BdlFvUK8rBEL3zMo9sr6HOfRhmbQ2_Qg3eCbHiEUIa0ItJ5KwnhCkI2FQRMXdIQKCFS_oUNTLLfXYlbkaSMy0S0-sdu1cLSeOE26N6eAO9RSz7ViSeBlNJRRJav46Q-hasfkbxW9kFKBhbfeUW2neZB0dYveS9zJPq3dJi9vhlPDlFxO6WhMKP_i4gQ4Epu_3wS-J5-1r-uvxARyARRt4OXLuI0kRy9CPVVuY2EDmaWBXm-zLHJ1N6dArW6GKxuUcstJb3a7N607oUqvFzFkdToUwFqMOV9LNRjefpLBDVoLIh6bfeMzZtLVlF_0UrXsxVTdL1H5jyRwq_T8V2NtlnjHxCnHcCxoWTVabZhmUTdxqTWle11jxN13PXauO1JjTncAm_HO4TveJMMh7-BIjoED_Fgnq9cQJsNpelNwHpG-zZMb0YwVDABoVedAfocfilNHJKNTfyaVFxQh5gRXxKN5Pjr9mwPA-2LpPejnfP6vP_ck1mwSQvHpCU9qV6ehy0]--></g></svg>